<?xml version="1.0" encoding="iso-8859-1"?>
<!-- Generator: Adobe Illustrator 19.0.0, SVG Export Plug-In . SVG Version: 6.00 Build 0)  -->
<svg version="1.1" id="Layer_1" xmlns="http://www.w3.org/2000/svg" xmlns:xlink="http://www.w3.org/1999/xlink" x="0px" y="0px"
	 viewBox="0 0 512 512" style="enable-background:new 0 0 512 512;" xml:space="preserve">
<g>
	<g>
		<path d="M411.826,222.609c-11.697,0-22.929,2.022-33.374,5.723l-33.409-60.135v-45.762h50.087c9.206,0,16.696,7.49,16.696,16.696
			c0,9.22,7.475,16.696,16.696,16.696s16.696-7.475,16.696-16.696c0-27.618-22.469-50.087-50.087-50.087h-66.783
			c-9.22,0-16.696,7.475-16.696,16.696v50.087H182.067l-18.609-33.391h3.498c9.22,0,16.696-7.475,16.696-16.696
			s-7.475-16.696-16.696-16.696c-8.15,0-56.557,0-66.783,0c-9.22,0-16.696,7.475-16.696,16.696s7.475,16.696,16.696,16.696h25.058
			l28.368,50.901l-25.617,53.203c-8.833-2.556-18.164-3.93-27.809-3.93C44.938,222.609,0,267.547,0,322.783
			s44.938,100.174,100.174,100.174c49.548,0,90.802-36.162,98.775-83.478h3.961c7.108,22.555,28.218,38.956,53.09,38.956
			c30.687,0,55.652-24.966,55.652-55.652c0-15.977-6.777-30.394-17.597-40.553l35.352-73.423l19.88,35.783
			c-22.926,18.373-37.635,46.595-37.635,78.192c0,55.236,44.938,100.174,100.174,100.174S512,378.018,512,322.783
			S467.062,222.609,411.826,222.609z M100.174,389.565c-36.824,0-66.783-29.959-66.783-66.783S63.35,256,100.174,256
			c4.451,0,8.799,0.446,13.008,1.281L85.131,315.54c-5.33,11.07,2.755,23.938,15.043,23.938h64.669
			C157.411,368.249,131.234,389.565,100.174,389.565z M126.742,306.087l16.506-34.282c10.398,8.8,18.088,20.706,21.595,34.282
			H126.742z M202.91,306.088h-3.961c-4.506-26.742-19.639-49.923-40.899-65.024l15.432-32.051l42.111,75.562
			C209.867,290.628,205.473,297.953,202.91,306.088z M256,345.043c-12.275,0-22.261-9.986-22.261-22.261s9.986-22.261,22.261-22.261
			c12.275,0,22.261,9.986,22.261,22.261S268.275,345.043,256,345.043z M263.985,267.711c-2.609-0.376-5.273-0.581-7.985-0.581
			c-3.858,0-7.624,0.396-11.263,1.146l-44.061-79.059h101.103L263.985,267.711z M411.826,389.565
			c-36.824,0-66.783-29.959-66.783-66.783c0-19.021,8.006-36.197,20.811-48.372l31.378,56.479
			c4.48,8.064,14.647,10.965,22.703,6.487c8.061-4.478,10.965-14.642,6.487-22.702l-31.405-56.529
			c5.372-1.398,11.005-2.146,16.809-2.146c36.824,0,66.783,29.959,66.783,66.783S448.65,389.565,411.826,389.565z"/>
	</g>
</g>
<g>
</g>
<g>
</g>
<g>
</g>
<g>
</g>
<g>
</g>
<g>
</g>
<g>
</g>
<g>
</g>
<g>
</g>
<g>
</g>
<g>
</g>
<g>
</g>
<g>
</g>
<g>
</g>
<g>
</g>
</svg>
